<svg width="25" height="26" viewBox="0 0 25 26" fill="none" xmlns="http://www.w3.org/2000/svg">
<path d="M21.4844 2.90039H3.51562C3.0835 2.90039 2.73438 3.24951 2.73438 3.68164V21.6504C2.73438 22.0825 3.0835 22.4316 3.51562 22.4316H21.4844C21.9165 22.4316 22.2656 22.0825 22.2656 21.6504V3.68164C22.2656 3.24951 21.9165 2.90039 21.4844 2.90039ZM19.2285 8.60107H17.6685C16.4453 8.60107 16.2085 9.18213 16.2085 10.0366V11.9189H19.1284L18.7476 14.8657H16.2085V22.4316H13.1641V14.8682H10.6177V11.9189H13.1641V9.74609C13.1641 7.22412 14.7046 5.84961 16.9556 5.84961C18.0347 5.84961 18.96 5.93018 19.231 5.9668V8.60107H19.2285Z" fill="white"/>
</svg>
