<svg width="21" height="21" viewBox="0 0 21 21" fill="none" xmlns="http://www.w3.org/2000/svg">
<path d="M10.5 7.41186C8.708 7.41186 7.2456 8.87426 7.2456 10.6663C7.2456 12.4582 8.708 13.9206 10.5 13.9206C12.292 13.9206 13.7544 12.4582 13.7544 10.6663C13.7544 8.87426 12.292 7.41186 10.5 7.41186ZM20.2607 10.6663C20.2607 9.3186 20.2729 7.98315 20.1973 6.63793C20.1216 5.07543 19.7651 3.68871 18.6226 2.54614C17.4775 1.40112 16.0933 1.04711 14.5308 0.971429C13.1831 0.895746 11.8476 0.907953 10.5024 0.907953C9.15478 0.907953 7.81933 0.895746 6.47412 0.971429C4.91162 1.04711 3.5249 1.40356 2.38232 2.54614C1.2373 3.69116 0.883295 5.07543 0.807611 6.63793C0.731927 7.98559 0.744134 9.32104 0.744134 10.6663C0.744134 12.0115 0.731927 13.3494 0.807611 14.6946C0.883295 16.2571 1.23974 17.6438 2.38232 18.7864C3.52734 19.9314 4.91162 20.2854 6.47412 20.3611C7.82177 20.4368 9.15722 20.4246 10.5024 20.4246C11.8501 20.4246 13.1855 20.4368 14.5308 20.3611C16.0933 20.2854 17.48 19.9289 18.6226 18.7864C19.7676 17.6413 20.1216 16.2571 20.1973 14.6946C20.2754 13.3494 20.2607 12.0139 20.2607 10.6663V10.6663ZM10.5 15.6736C7.729 15.6736 5.49267 13.4372 5.49267 10.6663C5.49267 7.89526 7.729 5.65893 10.5 5.65893C13.271 5.65893 15.5073 7.89526 15.5073 10.6663C15.5073 13.4372 13.271 15.6736 10.5 15.6736ZM15.7124 6.62328C15.0654 6.62328 14.543 6.10082 14.543 5.45385C14.543 4.80688 15.0654 4.28442 15.7124 4.28442C16.3594 4.28442 16.8818 4.80688 16.8818 5.45385C16.882 5.60748 16.8519 5.75963 16.7932 5.9016C16.7345 6.04357 16.6484 6.17256 16.5397 6.28119C16.4311 6.38983 16.3021 6.47596 16.1601 6.53466C16.0182 6.59336 15.866 6.62348 15.7124 6.62328V6.62328Z" fill="white"/>
</svg>
