<svg width="21" height="17" viewBox="0 0 21 17" fill="none" xmlns="http://www.w3.org/2000/svg">
<path d="M20.6562 2.37452C19.9092 2.69679 19.0962 2.92872 18.2588 3.01905C19.1282 2.50254 19.7793 1.68653 20.0898 0.724131C19.274 1.20946 18.3803 1.54977 17.4482 1.72999C17.0587 1.31355 16.5876 0.981797 16.0642 0.755399C15.5409 0.529002 14.9765 0.412813 14.4062 0.414073C12.0991 0.414073 10.2437 2.28419 10.2437 4.57911C10.2437 4.90138 10.2827 5.22364 10.3462 5.5337C6.8916 5.35304 3.81055 3.70265 1.76221 1.17579C1.38898 1.81328 1.19339 2.53914 1.1958 3.27784C1.1958 4.72315 1.93066 5.99757 3.05127 6.74708C2.39088 6.72107 1.74595 6.53956 1.16895 6.2173V6.26856C1.16895 8.29249 2.59961 9.96974 4.50635 10.3555C4.14834 10.4485 3.78005 10.496 3.41016 10.4971C3.13916 10.4971 2.88281 10.4702 2.62402 10.4336C3.15137 12.084 4.68701 13.2827 6.51562 13.3218C5.08496 14.4424 3.29297 15.1016 1.34717 15.1016C0.998047 15.1016 0.675781 15.0894 0.341309 15.0503C2.18701 16.2344 4.37695 16.918 6.73535 16.918C14.3916 16.918 18.5811 10.5752 18.5811 5.06983C18.5811 4.88917 18.5811 4.70851 18.5688 4.52784C19.3794 3.93458 20.0898 3.19972 20.6562 2.37452Z" fill="white"/>
</svg>
